<svg xmlns="http://www.w3.org/2000/svg" width="44" height="44" viewBox="0 0 44 44" fill="none">
<circle cx="21.7676" cy="21.7671" r="21.7676" fill="#ED1B24"/>
<path d="M32.7007 10.8728H10.6328V32.9407H32.7007V10.8728Z" fill="#ED1B24"/>
<path d="M18.9082 21.9067H24.4252" stroke="#0D0D0D" stroke-linecap="round" stroke-linejoin="round"/>
<path d="M18.9082 24.665H24.4252" stroke="#0D0D0D" stroke-linecap="round" stroke-linejoin="round"/>
<path d="M15.4601 14.3208H27.8733C28.0562 14.3208 28.2316 14.3935 28.3609 14.5228C28.4903 14.6521 28.5629 14.8275 28.5629 15.0104V28.1132C28.5629 28.6619 28.345 29.1881 27.957 29.5761C27.569 29.9641 27.0428 30.1821 26.4941 30.1821H16.8394C16.2907 30.1821 15.7645 29.9641 15.3765 29.5761C14.9885 29.1881 14.7705 28.6619 14.7705 28.1132V15.0104C14.7705 14.8275 14.8432 14.6521 14.9725 14.5228C15.1018 14.3935 15.2772 14.3208 15.4601 14.3208Z" fill="white" stroke="#FAFAFA" stroke-linecap="round" stroke-linejoin="round"/>
<path d="M17.5283 12.9417V15.7001" stroke="#0D0D0D" stroke-linecap="round" stroke-linejoin="round"/>
<path d="M21.666 12.9417V15.7001" stroke="#0D0D0D" stroke-linecap="round" stroke-linejoin="round"/>
<path d="M25.8037 12.9417V15.7001" stroke="#0D0D0D" stroke-linecap="round" stroke-linejoin="round"/>
</svg>