<svg xmlns="http://www.w3.org/2000/svg" width="62" height="61" viewBox="0 0 62 61" fill="none">
<path d="M19.6038 47.3407C23.7622 47.3407 27.1333 43.9696 27.1333 39.8112C27.1333 35.6527 23.7622 32.2816 19.6038 32.2816C15.4453 32.2816 12.0742 35.6527 12.0742 39.8112C12.0742 43.9696 15.4453 47.3407 19.6038 47.3407Z" stroke="#4EAF4E" stroke-width="2" stroke-linecap="round" stroke-linejoin="round"/>
<path d="M8.30957 52.9879C9.62461 51.2345 11.3298 49.8113 13.2902 48.8312C15.2505 47.851 17.4121 47.3407 19.6039 47.3407C21.7956 47.3407 23.9572 47.851 25.9176 48.8312C27.8779 49.8113 29.5832 51.2345 30.8982 52.9879" stroke="#4EAF4E" stroke-width="2" stroke-linecap="round" stroke-linejoin="round"/>
<path d="M19.6038 22.8697C23.7622 22.8697 27.1333 19.4986 27.1333 15.3401C27.1333 11.1817 23.7622 7.81061 19.6038 7.81061C15.4453 7.81061 12.0742 11.1817 12.0742 15.3401C12.0742 19.4986 15.4453 22.8697 19.6038 22.8697Z" stroke="#4EAF4E" stroke-width="2" stroke-linecap="round" stroke-linejoin="round"/>
<path d="M8.30957 28.5168C9.62461 26.7635 11.3298 25.3403 13.2902 24.3602C15.2505 23.38 17.4121 22.8697 19.6039 22.8697C21.7956 22.8697 23.9572 23.38 25.9176 24.3602C27.8779 25.3403 29.5832 26.7635 30.8982 28.5168" stroke="#4EAF4E" stroke-width="2" stroke-linecap="round" stroke-linejoin="round"/>
<path d="M42.1926 47.3407C46.3511 47.3407 49.7222 43.9696 49.7222 39.8112C49.7222 35.6527 46.3511 32.2816 42.1926 32.2816C38.0342 32.2816 34.6631 35.6527 34.6631 39.8112C34.6631 43.9696 38.0342 47.3407 42.1926 47.3407Z" stroke="#4EAF4E" stroke-width="2" stroke-linecap="round" stroke-linejoin="round"/>
<path d="M30.8984 52.9879C32.2135 51.2345 33.9187 49.8113 35.879 48.8312C37.8394 47.851 40.001 47.3407 42.1927 47.3407C44.3845 47.3407 46.5461 47.851 48.5065 48.8312C50.4668 49.8113 52.172 51.2345 53.4871 52.9879" stroke="#4EAF4E" stroke-width="2" stroke-linecap="round" stroke-linejoin="round"/>
<path d="M42.1926 22.8697C46.3511 22.8697 49.7222 19.4986 49.7222 15.3401C49.7222 11.1817 46.3511 7.81061 42.1926 7.81061C38.0342 7.81061 34.6631 11.1817 34.6631 15.3401C34.6631 19.4986 38.0342 22.8697 42.1926 22.8697Z" stroke="#4EAF4E" stroke-width="2" stroke-linecap="round" stroke-linejoin="round"/>
<path d="M30.8984 28.5168C32.2135 26.7635 33.9187 25.3403 35.879 24.3602C37.8394 23.38 40.001 22.8697 42.1927 22.8697C44.3845 22.8697 46.5461 23.38 48.5065 24.3602C50.4668 25.3403 52.172 26.7635 53.4871 28.5168" stroke="#4EAF4E" stroke-width="2" stroke-linecap="round" stroke-linejoin="round"/>
</svg>