<svg xmlns="http://www.w3.org/2000/svg" width="73" height="45" viewBox="0 0 73 45" fill="none">
<path d="M36.3408 34.0127C42.7859 34.0127 48.0107 29.563 48.0107 24.0741C48.0107 18.5851 42.7859 14.1354 36.3408 14.1354C29.8957 14.1354 24.6709 18.5851 24.6709 24.0741C24.6709 29.563 29.8957 34.0127 36.3408 34.0127Z" stroke="#141414" stroke-width="4" stroke-linecap="round" stroke-linejoin="round"/>
<path d="M56.1797 18.1111C58.898 18.1072 61.5798 18.6444 64.0112 19.6797C66.4425 20.7151 68.5562 22.2199 70.1836 24.0743" stroke="#141414" stroke-width="4" stroke-linecap="round" stroke-linejoin="round"/>
<path d="M2.49902 24.0743C4.12639 22.2199 6.24004 20.7151 8.6714 19.6797C11.1028 18.6444 13.7846 18.1072 16.5029 18.1111" stroke="#141414" stroke-width="4" stroke-linecap="round" stroke-linejoin="round"/>
<path d="M19.5371 42.9582C21.0741 40.2775 23.4643 38.0183 26.4353 36.438C29.4064 34.8577 32.8389 34.0198 36.3418 34.0198C39.8447 34.0198 43.2772 34.8577 46.2482 36.438C49.2193 38.0183 51.6094 40.2775 53.1464 42.9582" stroke="#141414" stroke-width="4" stroke-linecap="round" stroke-linejoin="round"/>
<path d="M16.5026 18.1114C14.7307 18.1129 12.9948 17.6849 11.4978 16.8775C10.0009 16.07 8.80464 14.9164 8.04891 13.5515C7.29318 12.1865 7.00917 10.6666 7.23006 9.16926C7.45095 7.67195 8.16761 6.25909 9.29632 5.09578C10.425 3.93246 11.9192 3.06673 13.6041 2.59974C15.2891 2.13275 17.0954 2.08379 18.8118 2.45859C20.5282 2.83338 22.084 3.61644 23.2973 4.71627C24.5105 5.81611 25.3313 7.18729 25.6635 8.66962" stroke="#141414" stroke-width="4" stroke-linecap="round" stroke-linejoin="round"/>
<path d="M47.0195 8.66962C47.3518 7.18729 48.1725 5.81611 49.3858 4.71627C50.5991 3.61644 52.1548 2.83338 53.8712 2.45859C55.5877 2.08379 57.3939 2.13275 59.0789 2.59974C60.7639 3.06673 62.258 3.93246 63.3867 5.09578C64.5154 6.25909 65.2321 7.67195 65.453 9.16926C65.6739 10.6666 65.3898 12.1865 64.6341 13.5515C63.8784 14.9164 62.6822 16.07 61.1852 16.8775C59.6882 17.6849 57.9524 18.1129 56.1804 18.1114" stroke="#141414" stroke-width="4" stroke-linecap="round" stroke-linejoin="round"/>
</svg>